/* XPM */
static char *_705a621449444b5a70a3d6b577859c3[] = {
/* columns rows colors chars-per-pixel */
"128 128 68 1 ",
"  c #050506",
". c #070708",
"X c #0A0A0B",
"o c #121112",
"O c #1F1F1E",
"+ c #20201F",
"@ c #232322",
"# c #282827",
"$ c #2C2C2B",
"% c #30302F",
"& c #343433",
"* c #383737",
"= c #383837",
"- c #3C3C3B",
"; c #40403F",
": c #444443",
"> c #484747",
", c #484847",
"< c #4C4C4B",
"1 c #504F4F",
"2 c #50504F",
"3 c #545353",
"4 c #585757",
"5 c #585857",
"6 c #5C5B5B",
"7 c #605F5F",
"8 c #60605F",
"9 c #646363",
"0 c #686767",
"q c #686867",
"w c #6C6B6B",
"e c #706F6F",
"r c #70706F",
"t c #747373",
"y c #787777",
"u c #787877",
"i c #7C7B7B",
"p c #807F7F",
"a c #80807F",
"s c #848383",
"d c #888787",
"f c #8C8B8B",
"g c #908F8F",
"h c #90908F",
"j c #949393",
"k c #989797",
"l c #9C9B9B",
"z c #A09F9F",
"x c #A4A3A3",
"c c #A8A7A7",
"v c #ACABAB",
"b c #B0AFAF",
"n c #B4B3B3",
"m c #B8B7B7",
"M c #BCBCBC",
"N c #C0BFBF",
"B c #C4C4C4",
"V c #C8C7C7",
"C c #C8C8C7",
"Z c #CBCBCB",
"A c #D0CFCF",
"S c #D4D4D4",
"D c #DCDCDC",
"F c #E4E4E4",
"G c #ECECEC",
"H c #F4F4F4",
"J c #FBFBFB",
"K c None",
/* pixels */
"KKKKKKKKKKKKKKKKKKKKKKKKKKKKKKKKKKKKKKKKKKKKKKKKKKKKKKKKKKKKKKKKKKKKKKKKKKKKKKKKKKKKKKKKKKKKKKKKKKKKKKKKKKKKKKKKKKKKKKKKKKKKKKKK",
"KKKKKKKKKKKKKKKKKKKKKKKKKKKKKKKKKKKKKKKddssiiiiytee9997KKKKKKKKKKKKKKKKKKKKKKKKKKKKKKKKKKKKKKKKKKKKKKKKKKKKKKKKKKKKKKKKKKKKKKKKK",
"KKKKKKKKKKKKKKKKKKKKKKKKKKKKKKKKKKKjgjjzcbmBVBBmbcxkdiw9544KKKKKKKKKKKKKKKKKKKKKKKKKKKKKKKKKKKKKKKKKKKKKKKKKKKKKKKKKKKKKKKKKKKKK",
"KKKKKKKKKKKKKKKKKKKKKKKKKKKKKKKKlklxMSFHJHHGFDDSSCBMmvxkse766KKKKKKKKKKKKKKKKKKKKKKKKKKKKKKKKKKKKKKKKKKKKKKKKKKKKKKKKKKKKKKKKKKK",
"KKKKKKKKKKKKKKKKKKKKKKKKKKKKKKxxcBDHJJJJJHGGFDDSAZBNmnvcxkfie00KKKKKKKKKKKKKKKKKKKKKKKKKKKKKKKKKKKKKKKKKKKKKKKKKKKKKKKKKKKKKKKKK",
"KKKKKKKKKKKKKKKKKKKKKKKKKKKKccmZFHHHJJJJJHHGFFDSAZBNmmbcxlkgdpttewKKKKKKKKKKKKKKKKKKKKKKKKKKKKKKKKKKKKKKKKKKKKKKKKKKKKKKKKKKKKKK",
"KKKKKKKKKKKKKKKKKKKKKKKKKKvvmSFGGHHHHJJJJJHGFFDSSZCNMmbvxzkjfdateww09KKKKKKKKKKKKKKKKKKKKKKKKKKKKKKKKKKKKKKKKKKKKKKKKKKKKKKKKKKK",
"KKKKKKKKKKKKKKKKKKKKKKKKnbmZFGGGGHHHHJJJJJHGGFDDSZCBMmbvczkjfdaitw00997KKKKKKKKKKKKKKKKKKKKKKKKKKKKKKKKKKKKKKKKKKKKKKKKKKKKKKKKK",
"KKKKKKKKKKKKKKKKKKKKKKKmmVDFFFFGGHHHHJHJJJHGGFDDSAZBNmnvczljfdsitewqqw966KKKKKKKKKKKKKKKKKKKKKKKKKKKKKKKKKKKKKKKKKKKKKKKKKKKKKKK",
"KKKKKKKKKKKKKKKKKKKKKKmMADDFFFFGGHGHHJJJJJJGGFDDSAZBNmnvvxljhfsayew99qtw644KKKKKKKKKKKKKKKKKKKKKKKKKKKKKKKKKKKKKKKKKKKKKKKKKKKKK",
"KKKKKKKKKKKKKKKKKKKKNMBSDDDFFGFGGGGHHJJJJJJHGGFDDAZBBMnbcxzkjfsaytw9970te932KKKKKKKKKKKKKKKKKKKKKKKKKKKKKKKKKKKKKKKKKKKKKKKKKKKK",
"KKKKKKKKKKKKKKKKKKKNNZSDDDDFFFFGGGHHHHJJJJJHGFFDSSZZBMnnvxzljfdaite99669te942<KKKKKKKKKKKKKKKKKKKKKKKKKKKKKKKKKKKKKKKKKKKKKKKKKK",
"KKKKKKKKKKKKKKKKKKVBCSSSDDDDFFFFGGGGHHJJJJJHHGFFDSAZBMmnvczljhdsiyeq96669ee96<<KKKKKKKKKKKKKKKKKKKKKKKKKKKKKKKKKKKKKKKKKKKKKKKKK",
"KKKKKKKKKKKKKKKKKCBZASSSDDDFFFFFGGHHHHHJJJJJGGFDDSAZBMMnbcxljhfsiyew963469ew96<,KKKKKKKKKKKKKKKKKKKKKKKKKKKKKKKKKKKKKKKKKKKKKKKK",
"KKKKKKKKKKKKKKKKZBVZAASSSDDDFFGFGGGHHHHJJJJHHGFDDSAZCNMnbcxlkhfspytw9762369ew96<:KKKKKKKKKKKKKKKKKKKKKKKKKKKKKKKKKKKKKKKKKKKKKKK",
"KKKKKKKKKKKKKKKZZVZZAASSSDDDFFFGGGGHHHJJJJJJHGGFDDSZCBMnnvxzkjhspitw9663<26ww966<::KKKKKKKKKKKKKKKKKKKKKKKKKKKKKKKKKKKKKKKKKKKKK",
"KKKKKKKKKKKKKKSZBBZZZSSSSDDDFFFFGGGGHHHJJJJJHHGFDDSACBNmnvxzljhdsiteq763<<36w0964<;-KKKKKKKKKKKKKKKKKKKKKKKKKKKKKKKKKKKKKKKKKKKK",
"KKKKKKKKKKKKKKABNZBZZASSSDDDDFFFGFGGHHHJJJJJHGGFFDSZZBNmnvvxlkhdsiyew9631:,47w9762<--KKKKKKKKKKKKKKKKKKKKKKKKKKKKKKKKKKKKKKKKKKK",
"KKKKKKKKKKKKKSCMMBZZZAASSSDDDFFFGGGHHHHHJJJJHHGFFDDAZBNMmvvzlkhfspytw9741<:<49w9642:-KKKKKKKKKKKKKKKKKKKKKKKKKKKKKKKKKKKKKKKKKKK",
"KKKKKKKKKKKKDAnmMBZBZZSSSDDDDFFFFGGGGHHJJJJJJHGFFDSSZCBMmnvxzkjfdpitw0741<::16w9764<:=KKKKKKKKKKKKKKKKKKKKKKKKKKKKKKKKKKKKKKKKKK",
"KKKKKKKKKKKDSnbnMBCZZZAASDSDDDFFFGGGGHHHHJJJJHHGFDDSACBMmnvxzljgdsite0763<:->39q9662<-*KKKKKKKKKKKKKKKKKKKKKKKKKKKKKKKKKKKKKKKKK",
"KKKKKKKKKKKDNcbnMBBCZZASSSDDDFFFFGGGHHHHHJJJJJGGFDDSAZBMmnvxzljhdsiyew9641>;-<409663<>=&KKKKKKKKKKKKKKKKKKKKKKKKKKKKKKKKKKKKKKKK",
"KKKKKKKKKKDZxxvnmNCCZZASSSDDDFFFGFGGGHHHJJJJJJGGFFDSAZBNMnnxxlkhfsiyew9641,;*:19w9662<:*&KKKKKKKKKKKKKKKKKKKKKKKKKKKKKKKKKKKKKKK",
"KKKKKKKKKKDvlzvnmNBCZZAAZZBMMMMBZDGGGHHHHJJJJHHFFDDSSZCNMmnvxzkjfdpite9742<:-*<6w96542,-&KKKKKKKKKKKKKKKKKKKKKKKKKKKKKKKKKKKKKKK",
"KKKKKKKKKFNklzcbmMBCCNnzhstw08666qikMFHHHHFSNvxkjhjjzcnMNmnvxzkjfdsite0763<:-*;2909641<:*%KKKKKKKKKKKKKKKKKKKKKKKKKKKKKKKKKKKKKK",
"KKKKKKKKFDlhlzcbnMNnzhar83:;=&&=*---;3dMNckhfffhhhfdautudlvvcxljgdsiteq9631>;**<6w96631>;&%KKKKKKKKKKKKKKKKKKKKKKKKKKKKKKKKKKKKK",
"KKKKKKKKFndhkzcvnbzhp8,=%$##$######$&&%&5dffjlxvnmNBBMbkiwrdlxlkgfspytw9641>;*&:3wq9642<:=$KKKKKKKKKKKKKKKKKKKKKKKKKKKKKKKKKKKKK",
"KKKKKKKFDjdgjlxcxka6;=&&&&&&%%%%%$%&=-<8tadhklcvnmBCADDFDNjwqijkjfspytw0743>:-&=<9w9763<<;&$KKKKKKKKKKKKKKKKKKKKKKKKKKKKKKKKKKKK",
"KKKKKKKGnadgjlxxhq,;;;--------===-;,29weiafhkzcvnMNZADDFGHHDlq9igfdsytwq763<:;*%<6w09641<:=$KKKKKKKKKKKKKKKKKKKKKKKKKKKKKKKKKKKK",
"KKKKKKGDgisfkccs4,,,>,>:::::;;;;><2699weiafhkzcvnMBZSSDFGHJJJAd60sdsiyeq763<>;*%:4ww9662<<:&$KKKKKKKKKKKKKKKKKKKKKKKKKKKKKKKKKKK",
"KKKKKKGMtisjbcy3121<<2<,<<,,,,,2366369wyisfhkzcbmNBZADFFGHJJJHGb06tspytw9641>;=%=10ww8642<:=$KKKKKKKKKKKKKKKKKKKKKKKKKKKKKKKKKKK",
"KKKKKKFgeifbct55444443333332225692<369wyidfhlxcnmNBZSDFFGHJJHHGGVi3qiytw0741>:-&&<9ew9763<<:%@KKKKKKKKKKKKKKKKKKKKKKKKKKKKKKKKKK",
"KKKKKGStednvy7767667666564444697>:<470wtpsfjzxvnMNCZSDFFGHJJJGGGFSd38ytwq853<>-&%>6te08643,>-#KKKKKKKKKKKKKKKKKKKKKKKKKKKKKKKKKK",
"KKKKKGx9ibni00009999989877779w9;-><470typdgjlxvnmNCASDFGHHJJJHGGFFSj36teq854<>;=%;4tew9744<,:%#KKKKKKKKKKKKKKKKKKKKKKKKKKKKKKKKK",
"KKKKKFiqcNdeeewwwwwqw0000090e0-&;,3570eisdhkzxvnMBZASDFGHHJJHGGFFDSSj25ee8642,;=%-3wee08543,>*@KKKKKKKKKKKKKKKKKKKKKKKKKKKKKKKKK",
"KKKKHZ8hBlyttttttteteeewwwwtr-$*;,359qtipdhlzcvmMBZADDFGGJJJJHGGFDDSZg15e9652,:-%*1eeeq9753<>;$@KKKKKKKKKKKKKKKKKKKKKKKKKKKKKKKK",
"KKKKHztBbpiiiiiyiyyyutttttyy<@$=;<359wtisfjkzcvmMBZSSFGGHJJJHGGFDDSSAVs,40753,:-&&<wytw08643<:%@KKKKKKKKKKKKKKKKKKKKKKKKKKKKKKKK",
"KKKKGicVgsssaappppiiiiiiiii9##%-:<469wtisfjlxvnmNBZSDFFGHJJHHHGFFDSAZVMt>5864<>-*&,0itww9753<,-#KKKKKKKKKKKKKKKKKKKKKKKKKKKKKKKK",
"KKKHSfAcdfddddddssssssssppi*+#%-:<480etisfjlzcbmNBZSDFFGHJJJHGGFDDSSZBBn8>664<,;=&<9iytwq8541<:#@KKKKKKKKKKKKKKKKKKKKKKKKKKKKKKK",
"KKKHNmVkggggfffffffdfdddds3+@#&-><46qeipdgklxvnMNZZADFGGHJJJHGFFDDSAZBNMl1<653,;-&,8iytew96531>%@KKKKKKKKKKKKKKKKKKKKKKKKKKKKKKK",
"KKKHCSbjkjjjjjjhjhhhhhffdu%+@$&;>357weiadgklcvmMBZZDDFGHJJJHGGFFDDSACBNMma;253,:-&>8siyew07631<-@KKKKKKKKKKKKKKKKKKKKKKKKKKKKKKK",
"KKKHDZzlllllklkkkkkjjjjhf3++@$&;>1690eiadhkzcvnMBZASDFGGJJJJHGGFDDSACBNmnv8>43<>;=>7siyte09743<:$@KKKKKKKKKKKKKKKKKKKKKKKKKKKKKK",
"KKHHDMxxxzzzzzzzllllllkja%+@#$=;,368wtiafjkzcvmMBZASDFGHJJJHGGFFDDSZCBMmnvh,>3<>;=,7spiyew07641<%@KKKKKKKKKKKKKKKKKKKKKKKKKKKKKK",
"KKHGSnccccccxxxxxxxzxzbc8+@+#%=:<369etisfhkxcnmNBZSDFFGHJJJHGGFFDSZZCBNmnvvw-33,;-,9dspyte09743<&@KKKKKKKKKKKKKKKKKKKKKKKKKKKKKK",
"KKHGZnbbvvvvvvvvccvccxZm-++@#%-:<370etpsfjlxvnnNBZSDFGGHJJJHGGFDDSSZBBMmnvxj<:1<:-,9fspiyew07641-@KKKKKKKKKKKKKKKKKKKKKKKKKKKKKK",
"KKGFBnnnmnnnnnbvbbbvvvFn#++@#&-:<460etpsfklxvnmNZZSDFFHHJJJGGGFFDSZZBNMnvvczw-<<:;10fdspyte09643:@KKKKKKKKKKKKKKKKKKKKKKKKKKKKKK",
"KKHDNMMMMmMmmmmmnnnnnNGZ%+@@$&-,148weiadhklxbnMNZADDFFGJJJHHGFFFDSZZBNMnbvxzf>:<>;1egfdpiyew0763<$&KKKKKKKKKKKKKKKKKKKKKKKKKKKKK",
"KKGDNNNNNNMMMMMMMMMMmAHF2+@@$&;,1680tiadhkzxvnMMNNBCSFGJJJHHGFFDSSZZBMMnbvxzk9-<>:3tjfdspyteq9743%&KKKKKKKKKKKKKKKKKKKKKKKKKKKKK",
"KKGSZVVBVVBBBNNBNNNNNDGHi+@@$=;<359wtisdglcnnnnvxzllllcnAFHHGFDDDSZCBMMnvcxlka;:,,3ijhfdaiyew0763&*KKKKKKKKKKKKKKKKKKKKKKKKKKKKK",
"KGGSZZZZCZZVVZBZBCBBCGSFb#@#%=;<369wtyskbMMbjiq7780tiadddfzMDGFDSSZCBMnnvczlkh3-<<6dkhfdsiyteq966=%KKKKKKKKKKKKKKKKKKKKKKKKKKKKK",
"KGGSASAASZSZZZZZZZZZAHNCD;+#%=:<360etgnBMh8-#@$&;,370tpsfgdpscZDSAZCBMnnvcxlkhw-,28hljhfdpitew976-%9KKKKKKKKKKKKKKKKKKKKKKKKKKKK",
"KHGSDSDSSSSSSSSAASAADHvvGuO#&-:2479yvZNp:@OO@#%;,360eiadhlzzfipxZSZBBMnvvczljha;;3qllkhfdspute096:$9KKKKKKKKKKKKKKKKKKKKKKKKKKKK",
"KHFDDDDDDDDDDDDSDSSSFGxlFm$#&-,248sBZh:@O@@@@%=:147wtpdfkzvbmvftivZBNMnnvxzljgd2-5tzzkjhfspiyew99<$9KKKKKKKKKKKKKKKKKKKKKKKKKKKK",
"KHGFFDFFDFDDDDDDDDDDGFkjBF5#*-,26kSM7@O@@O@@#&;,360tuafjlxvmNVZmswfMMMnnvxlkjgd9;6dczlkhfdsiyte09<#9KKKKKKKKKKKKKKKKKKKKKKKKKKKK",
"KGGGFGFFFFFFFFFFFFFDHFhhxFz%&;,5xDx;O@@@@@@#%->159wtpdhkzvnMBCSDSzwuvMnvcxzkhfdt<8lcxlkjgfspiyew02$9tKKKKKKKKKKKKKKKKKKKKKKKKKKK",
"KHHGGGGGGFGGGFFGFFFFHSfhjZD3=;2cFj$O@@+@@@@#*:<47wtisfkzcvmMZADDGGBeqznvcxlkhfdi8rcvxzlkgfdsiytww2$8yKKKKKKKKKKKKKKKKKKKKKKKKKKK",
"KHHHHHGGHHGGGGGGGGGGJZdfjxGl-,zFf#+@@+@@@@@&->269eypdjlxvnNBZSDFFHJDi7jvczlkhfdi9dnvczzkjgddiitew2$6yKKKKKKKKKKKKKKKKKKKKKKKKKKK",
"KJHJJJHJHHHHHHHHHHGGJCsdgkZD9hGk$@@@@+@++@$=:148wtpsgklzzxxcbNSFHJJJFp6fczljhddtqznbvxzlkjfdsiyte4$4yKKKKKKKKKKKKKKKKKKKKKKKKKKK",
"KHJJJJJJJJJJJJJJJHJHJVidfjcFZFv%O@+@@@@@+$&;<360eisgjjjfdsiyytydcAHJHFi6fxkjhdaqimmnvcxlkjfddiiye3$<yKKKKKKKKKKKKKKKKKKKKKKKKKKK",
"KHJJJJJJJJJJJJJJJJJJJVisdgjBGZ-+@@+@+@@@@%-,149wphllljKKKKKKKK0969ibFHDy5dljgdiqlMmnbcxzkkjfdsiit2%<yKKKKKKKKKKKKKKKKKKKKKKKKKKK",
"KHHJJJJJJJJJJJJJJJJJJZisdfjlDV=++@@+@@@@$&;<46egxccKKKKKKKKKKKKKKK430cFAq6ghgdeimMMnnvcxlkkffdiiy<%<yKKKKKKKKKKKKKKKKKKKKKKKKKKK",
"KJJJJJJJJJJJJJJJJJJJJZiiddfknFj@+@@+@+@@%;,36icmbKKKKKKKKKKKKKKKKKKK<10nM68gdpwlZNMmmvvxxkkjfdsiy,%<tKKKKKKKKKKKKKKKKKKKKKKKKKKK",
"KHJHHJHJJHJJJJJJJJJJJSiisddjkBFwO@@@@@@$=><5dnmKKKKKKKKKKKKKKKKKKKKKKK;,dh2efepBZNBmnbvcxlkjfddii:*<tyKKKKKKKKKKKKKKKKKKKKKKKKKK",
"KHJHHHHHHJHHJHHHJHHJJFuyidfgkxSA<O@@+@#&;,5hNNKKKKKKKKKKKKKKKKKKKKKKKKK;-682etvAZVNMmnvcxzljjddsy-=<tyKKKKKKKKKKKKKKKKKKKKKKKKKK",
"KKHHHHHHHHHHHHHHHHHHJFptipdfhkvDM-+@@@%-:3jBVKKKKKKKKKKKKKKKKKKKKKKKKKKKK*=2ejSSZZBMMnnvxxzjjhfst=;2tiKKKKKKKKKKKKKKKKKKKKKKKKKK",
"KKJHGGHHGHHHHHHHHHHHJHseypsfgklnFv&+@$*;<gZZKKKKKKKKKKKKKKKKKKKKKKKKKKKKKK=9sCSSZZBBMmnvvxzljhfdw=:2tiKKKKKKKKKKKKKKKKKKKKKKKKKK",
"KKJGGHHGGHHGGHGHHGHHHJjeyipdgjkzMDz%@&-,iZAKKKKKKKKKKKKKKKKKKKKKKKKKKKKKKKtiMDDSAZZBMMmbvxxlkjhf8=<3tpKKKKKKKKKKKKKKKKKKKKKKKKKK",
"KKJHGGGGGGGGGGHGHGGGHJvqtypsfgklzBFx;&;0BSKKKKKKKKKKKKKKKKKKKKKKKKKKKKKKKKivFFDSSZZBBMmbvvxzljhf2=<5ypKKKKKKKKKKKKKKKKKKKKKKKKKK",
"KKJHGGGGGGGGGGGGGGGGGJBweyipdfhklxBDb4<bDKKKKKKKKKKKKKKKKKKKKKKKKKKKKKKKKpxGGFDDSSZCBMMnnvxxzjjs>;14ypKKKKKKKKKKKKKKKKKKKKKKKKKK",
"KKJHGFFFFGGFGGFGGGFGGHDrwtypsfhklxcMDBlSKKKKKKKKKKKKKKKKKKKKKKKKKKKKKKKKsxGGFFDDSSZZBBMnnvvxxlju->36ypKKKKKKKKKKKKKKKKKKKKKKKKKK",
"KKJHFFFFFGFFGFFGFGGFGHHp0eyisdfjkzxvMSDDKKKKKKKKKKKKKKKKKKKKKKKKKKKKKKdsvGHGGFFDDSSZZBMMmvvxxljq-<37isKKKKKKKKKKKKKKKKKKKKKKKKKK",
"KKKJGFFFFFFFFFFFFFGFFGJz9wtipdfhjlzcvmASSKKKKKKKKKKKKKKKKKKKKKKKKKKKKfgMJJHHGGFFDSSZZBBMmnvvxzj3:147idKKKKKKKKKKKKKKKKKKKKKKKKKK",
"KKKJGFFDFFFFFFFFFFFFFFJC9qeyisdfjkzxvvmBSSSKKKKKKKKKKKKKKKKKKKKKKKKKfkAJJJJHGGFFDDSAZCBMmmbvxxs:>359psKKKKKKKKKKKKKKKKKKKKKKKKKK",
"KKKJGDFDDFDDFDDFFFFFDFHGy9eyiisfhklzvvnMBZZAAKKKKKKKKKKKKKKKKKKKKKjkmFJJJJJHHGGFFDSSZCBNMmnvcxw:<36qdsKKKKKKKKKKKKKKKKKKKKKKKKKK",
"KKKJHDDDDDDDDDFDDDFDDFHJk9weyisdhjkzxvvmMMBZAVVKKKKKKKKKKKKKKKKlklvSHJJJJJJJHGGFFDDSSZCBNmmbvl2,147wdKKKKKKKKKKKKKKKKKKKKKKKKKKK",
"KKKJJDDDDDDDDDDDDDDDDFHJZ9qweipdfhklzxvnMMBVZZVVVNNKKKKKKKKKvcxcmSGHHHHJJJJJHHGGFDDSSZZBNMmnba,<168edKKKKKKKKKKKKKKKKKKKKKKKKKKK",
"KKKKJFSDDSDDDDDDDDDDDFGCHi9qeyisdgjkzxvnnMNBCCZZVBBMMmnnvvvvnMZFGHGHHHJJJJJJHHHGFFDDSZZBBNMnc8,<369edKKKKKKKKKKKKKKKKKKKKKKKKKKK",
"KKKKJGSSSDSSSSSDSDSDDFFsGn8qweipsfhklxcvnmMBVCCZAAAAAZZZZSSDDFGGGGGHGHHJJJJJJHGGFFFDDSAZBNMmf<<<470tfKKKKKKKKKKKKKKKKKKKKKKKKKKK",
"KKKKJHSSSSSSSSSSSSSSDGD8NGe9weyisdhjkzxvbnMNBVCZZASSSDDDDDFFFFGFGGGHHHHJJJJJJJHHGFFDDSZABBMn9<<248wtfdKKKKKKKKKKKKKKKKKKKKKKKKKK",
"KKKKKJDSASASSSSSSSSSSGA3sHv9qeeipdfhklxxbnmMBVCCZAAASSSSDDDDFFFFGGGGHHHHJJJJJJHGGGFDDSAAZBBh1<<369wtffKKKKKKKKKKKKKKKKKKKKKKKKKK",
"KKKKKJFSZSAAAAAASAASSGZ58ZFu9qeyisdfjkzxvbmMNBVCZZZSZSSDDDDDFFFGGGGGHHHHHJJJJJHHHGFFDDSZZZn9<,<469eyffKKKKKKKKKKKKKKKKKKKKKKKKKK",
"KKKKKJHZZZAZAAAAAZAAAHB35fHn99wyipsfjjlxcbnmMBVCZZZSSSSSDDDDDFFFGFGGGHHHHJJJJJJHGGGFDDSSZZd2:,259qeidgKKKKKKKKKKKKKKKKKKKKKKKKKK",
"KKKKKKJSCZZZZZZZZZZZZGB36qNGd9wetisdgjkzxvbnMNBVZZZSSSSSSDDFDFFFFFGGGHHHHJJJJJJJHGGFFDDSAv6<:<269wtifgKKKKKKKKKKKKKKKKKKKKKKKKKK",
"KKKKKKJFCCCZZCZZCZZZZHZ36qsGAqqwtisdfjklxcvnmMBBZZZZZSSSSDDDDFFFFGGGGGHHHHHJJJJJHHGGFDDDBt4;:<469eyidjKKKKKKKKKKKKKKKKKKKKKKKKKK",
"KKKKKKJHZBBCBCBCCCCZZGZ469evHc9qttisdfjlzxvbmMNCZBZZZSSSDSSDDFFFFFFGGGHHHHHJJJJJHHGGFDDSf6:-,259weypdjKKKKKKKKKKKKKKKKKKKKKKKKKK",
"KKKKKKKJDNBBBBBBCBBCBGS66qeaZGf9etissfhkzxcvnmNBBZZZZSASSDDDDDDFFFGGGGGHHHHJJJJJJHHGGFFc8<=;<269wtisdjfKKKKKKKKKKKKKKKKKKKKKKKKK",
"KKKKKKKJGMMMMMNMNNNNBFD66qeukFDiqtyisdgkkzxvbnMNBBZZZSSSSSDDDFDFFFFGGGGHHHHJJJJJJHHGGFme<*=:<469eyidfjgKKKKKKKKKKKKKKKKKKKKKKKKK",
"KKKKKKKKHCnnmmmMmMMMMDGq69eidvGBtwtissfhklxcbnmNBBZZZZAASSSDDDFDFFFGGGGGHHHHJJJJJJJGGZy4**-:<489eyidfjjKKKKKKKKKKKKKKKKKKKKKKKKK",
"KKKKKKKKJFbbbbnbnnnnnSHe50eishBGneeypsdhjlzxvbmMBBBCZZASSSSSDDDFFFFFFGGGHHHHJJJJJJJHSi6&$=;<269wtysdjkjKKKKKKKKKKKKKKKKKKKKKKKKK",
"KKKKKKKKKHMcccvvvvvvvBJd59eisflZGnetiadfhklxcbbMMBCCZZAASSSDDDDDFFFFGGGGGHHHHJJJJJJDs9*@%=:<469etidfjkkfKKKKKKKKKKKKKKKKKKKKKKKK",
"KKKKKKKKKHDxzxxxxxxcxnJx49eishkxSGntyisdhklzcvbmMBBBZZZASSDSDDDDDFFFFGGGGHHHJHJJJJSs9&@#&-:<469eyidfklkgKKKKKKKKKKKKKKKKKKKKKKKK",
"KKKKKKKKKKHnllllzzzzzcGM60eisgkzvDGMiuadfhklxcvnMMBCCCZAASSSSSDDDFFFFFGGGGHHHHHJJVp9*+@$*;<249wtisdjklxjfKKKKKKKKKKKKKKKKKKKKKKK",
"KKKKKKKKKKHSkjjkkkkklkDD99eisfkxvnSGBsisdhjkzxvnnMBBCCZZZSSSDSDDFDFFFFGGGGGHHJJGbi6%@@@&=:<369wyisfjlxclfKKKKKKKKKKKKKKKKKKKKKKK",
"KKKKKKKKKKKHnfgggfhhjhBHu9eisgkzvnNSGAlsdfjklxcvnMMBCCZZZSSSSSDDDFDFFFFGGGHGHHDky6$++@#&-:<46qeypdfklxvvgKKKKKKKKKKKKKKKKKKKKKKK",
"KKKKKKKKKKKHDjsdffdfffcHk7eysfkxvnMBAFFMkdhjlzcvnnMBBCZZZSASSDDDDDFFFFGGGGHHFmde<%+@@@$*;:269wrisdhkzcvmldKKKKKKKKKKKKKKKKKKKKKK",
"KKKKKKKKKKKKGMaaissssdgGB9eisgjzvnNBZZDFDMljklxcvnMMBBCZZZZSSSSSDDDFFFFGGGFVks9&&&@@@@%=:<369etisfjkxcbmbfdKKKKKKKKKKKKKKKKKKKKK",
"KKKKKKKKKKKKHFjyiiiiiipZFywisfkzvnMBCZASDDSNxlzxvnnMBBZCZZAASSSDDDDFFFGFDBzdt<%@$&#+@#&-:<469eyidfklxvnmNzdKKKKKKKKKKKKKKKKKKKKK",
"KKKKKKKKKKKKKGZittttyyyxHkwisfkxvnMBZZZSSDDDDCmvvvnmMBCCZZZSSSDSDDDDFDAmzhi9,*%@@&%@@$&-<169weisdgklxvnMBMhsKKKKKKKKKKKKKKKKKKKK",
"KKKKKKKKKKKKKKGvwwweeeeiGVeysfklcnMBCZAASSDSSSSZBMMMMNBCZZZZSSSDSSSVmckhsw6<:=%@@%&@@%=:<269wtisdjkxvvmMBZbsKKKKKKKKKKKKKKKKKKKK",
"KKKKKKKKKKKKKKGFd909900wMGsysfkzvnMBCZASSDDDDDDASZZCBBBBBCCCBBBMmbcxkjdyw86<:=&@@#&$#%-:<469eyidfklxvnMNCAAlsKKKKKKKKKKKKKKKKKKK",
"KKKKKKKKKKKKKKKGZe669667dHbysfkzvnMBCZZSSDDDFGGGGFFDDZCBMMMMnnbvvxxkgditw74<:-%@@@%%$&-:1670ripdhkzxvnMNZASZfiKKKKKKKKKKKKKKKKKK",
"KKKKKKKKKKKKKKKKGn6446647AFspfkzcnMBZZASSDDDDFFGGHHHHJHGFDSZCNMmvclkfsitw841:=%@@+$&&*;<269wtisdhlzcbmMBZSDDNsiKKKKKKKKKKKKKKKKK",
"KKKKKKKKKKKKKKKKKFk<<<211fHvsfjzvnMBBZASSSDDFFGGGHHJJJJHGFFSZZNmbczkfditw85<:-%#+@@%&-:<469eyidfjlzvbmNCZSDFFmutKKKKKKKKKKKKKKKK",
"KKKKKKKKKKKKKKKKKFDp:<<<<4SDddkzxnMBZZZSSDDDFFGGGHHHJJJHGFDSZCMmbxlkfditw952:=%@@@+#%-,146weypdfklxvnMBCASDFGGbueKKKKKKKKKKKKKKK",
"KKKKKKKKKKKKKKKKKKFAe-;;:-dHbfkzcnMNCZASSDDFFFFFGHHJJJJHGFDDZCNmbczkfditw74<:-%@@+@@$&<269wtisdjkzvvnNBZSSDFGHHbtwKKKKKKKKKKKKKK",
"KKKKKKKKKKKKKKKKKKKFB6&===:CFlklcnMBCZZSSSDDFFGGGHHHJJJHGFDSACNmbclkhsitw741:-&@@@+@@$-469etisfjlxvnmNCZSDDGGHJHve0KKKKKKKKKKKKK",
"KKKKKKKKKKKKKKKKKKKKDN2$&%%9GZklcnMBCZZASDDDDFGGGHHJJJJHGFFSACNmbclkfdatw96<:-&@++@@@#%<70eypdfklxvnMNCZSDFGGHJJHme9KKKKKKKKKKKK",
"KKKKKKKKKKKKKKKKKKKKKDm<@##$zHblcbMBCZZSSDDDFFFGGGHJJJJHGFFSACNmbczkhsptw861:-%@@@@+@@@&6wtisdjkzcvnMBZSDDFGHJJJJHBi6KKKKKKKKKKK",
"KKKKKKKKKKKKKKKKKKKKKKDm<++@-AFccnMNBZAASSDDFFFGGHHHJJJHGGFSACBnbczjgsitw751,=&#@@@@@@#<lytisfjlxvnmMBZSDDFHHJJJJJHDj64KKKKKKKKK",
"KKKKKKKKKKKKKKKKKKKKKKKSm3+@+9FScnMBZZAASDDDFFFGGHHJJJJHGFDSSBNmbczkgdiyw951:=%@@@@@@$$lGbiidfklxvnMNCASDFFHHJJJHHGHFmt2<KKKKKKK",
"KKKKKKKKKKKKKKKKKKKKKKKKAM8@@@hGCnMBBZASSSDFDFFGGHHHJJJHGFDDACNmbczkfdptw962,-%@@+@@%&KKGFvsdjkxcvnMBZASDFGHJJJJHHHGGGDxq<-=KKKK",
"KKKKKKKKKKKKKKKKKKKKKKKKKANt$+%bGBnBZZASSDDDFFGGGHHJJJJHGGFSACNmnczkgdptw962:-&@@@@&=KKKKGFvfjkxvnmMBZSDFFGHJJJJJHHGGFFFSct<*%$K",
"KKKKKKKKKKKKKKKKKKKKKKKKKKCVf=O-BFZBZZAASDDDFFFFGHHHJJJHGFDSSCNMbczkgsptw961>-%#@$=-KKKKKKGDmkkxvnMNZZSDFFHHJJJHHHGGGFFFDDDm5%KK",
"KKKKKKKKKKKKKKKKKKKKKKKKKKKKBx2+,ZFZBZAASSDDFFGGGGHJJJJHGFFDACNmbczkgdptw952>=%#%::KKKKKKKKFDBxcvnMNZSSDFGHHJJJJHHHGGGFFFDZi-&KK",
"KKKKKKKKKKKKKKKKKKKKKKKKKKKKKBny%<ZFAZZSSSDDDFFGGHHHJJJHHFFSACNmbczkhdpyw952>-&-<,KKKKKKKKKKKDCmbmMVZASFFGHJJJJHHGGGFFFDDVt;KKKK",
"KKKKKKKKKKKKKKKKKKKKKKKKKKKKKKmmk32BFSAASDDDFFGFGHHJJJJHHFDDACNMnvzkhditw963>:<3<KKKKKKKKKKKKKDZBMMZZSDFGGJJJJJHHHGGGFFDv9:KKKKK",
"KKKKKKKKKKKKKKKKKKKKKKKKKKKKKKKKmviqmFSSSDDFFFGGGGHJJJJHGFDDACBmbczlhdiye963344KKKKKKKKKKKKKKKKSZZNZASDFGHHJJJJHHGGGGFBd6<KKKKKK",
"KKKKKKKKKKKKKKKKKKKKKKKKKKKKKKKKKKvldmDDSSDDDFFGGHGJJJJHGGDDACNmnczkhdatw96764KKKKKKKKKKKKKKKKKKKZCNVSFFGHJJJJHHHHGDBjw6KKKKKKKK",
"KKKKKKKKKKKKKKKKKKKKKKKKKKKKKKKKKKKlxzmDDDDDFFGGGHHJJJJJGGDDACNMnczkhdiue007KKKKKKKKKKKKKKKKKKKKKKKNMMNCDFHHHHGFSBxde99KKKKKKKKK",
"KKKKKKKKKKKKKKKKKKKKKKKKKKKKKKKKKKKKKfkxZSSDDFFGGGHHJJJHGFDDAVBmbcxkhsite9KKKKKKKKKKKKKKKKKKKKKKKKKKKKnbcvvbvcxjdsytKKKKKKKKKKKK",
"KKKKKKKKKKKKKKKKKKKKKKKKKKKKKKKKKKKKKKKyfcVSSDFGGHHHJJJHGGDDAZBMbclfsitq>KKKKKKKKKKKKKKKKKKKKKKKKKKKKKKKKKlkkkfdKKKKKKKKKKKKKKKK",
"KKKKKKKKKKKKKKKKKKKKKKKKKKKKKKKKKKKKKKKKKKtxNZSSDFGGHJJHGFDSZNnclgdpe4&KKKKKKKKKKKKKKKKKKKKKKKKKKKKKKKKKKKKKKKKKKKKKKKKKKKKKKKKK",
"KKKKKKKKKKKKKKKKKKKKKKKKKKKKKKKKKKKKKKKKKKKK-ylbMNBBCCZBNMnbxljdiw<$oKKKKKKKKKKKKKKKKKKKKKKKKKKKKKKKKKKKKKKKKKKKKKKKKKKKKKKKKKKK",
"KKKKKKKKKKKKKKKKKKKKKKKKKKKKKKKKKKKKKKKKKKKK   O&<9tissssiyw6<=#o      .KKKKKKKKKKKKKKKKKKKKKKKKKKKKKKKKKKKKKKKKKKKKKKKKKKKKKKKK",
"KKKKKKKKKKKKKKKKKKKKKKKKKKKKKKKKKKKKKKKKKKK         ..XXXXX              KKKKKKKKKKKKKKKKKKKKKKKKKKKKKKKKKKKKKKKKKKKKKKKKKKKKKKK",
"KKKKKKKKKKKKKKKKKKKKKKKKKKKKKKKKKKKKKKKKKKKK                   .        KKKKKKKKKKKKKKKKKKKKKKKKKKKKKKKKKKKKKKKKKKKKKKKKKKKKKKKK",
"KKKKKKKKKKKKKKKKKKKKKKKKKKKKKKKKKKKKKKKKKKKKKKK    .  .            . KKKKKKKKKKKKKKKKKKKKKKKKKKKKKKKKKKKKKKKKKKKKKKKKKKKKKKKKKKK",
"KKKKKKKKKKKKKKKKKKKKKKKKKKKKKKKKKKKKKKKKKKKKKKKKKKKKKKKK    KKKKKKKKKKKKKKKKKKKKKKKKKKKKKKKKKKKKKKKKKKKKKKKKKKKKKKKKKKKKKKKKKKKK"
};
