/* XPM */
static char *_360b73ccc8542b4b57eed832e8197da[] = {
/* columns rows colors chars-per-pixel */
"64 64 69 1 ",
"  c #040405",
". c #0A0A0B",
"X c #0F0F10",
"o c #111111",
"O c #1F1F1E",
"+ c #20201F",
"@ c #232322",
"# c #282827",
"$ c #2C2C2B",
"% c #30302F",
"& c #353534",
"* c #383737",
"= c #383837",
"- c #3C3C3B",
"; c #40403F",
": c #444443",
"> c #484747",
", c #484847",
"< c #4C4C4B",
"1 c #504F4F",
"2 c #50504F",
"3 c #545453",
"4 c #585757",
"5 c #585857",
"6 c #5C5B5B",
"7 c #605F5F",
"8 c #60605F",
"9 c #646463",
"0 c #686767",
"q c #686867",
"w c #6C6B6B",
"e c #706F6F",
"r c #747373",
"t c #787777",
"y c #797778",
"u c #7C7B7B",
"i c #807F7F",
"p c #848383",
"a c #888787",
"s c #888887",
"d c #8C8B8B",
"f c #908F8F",
"g c #90908F",
"h c #949393",
"j c #989797",
"k c #989897",
"l c #979798",
"z c #9C9B9B",
"x c #A09F9F",
"c c #A4A3A3",
"v c #A8A7A7",
"b c #ACACAC",
"n c #B0AFAF",
"m c #B4B3B3",
"M c #B8B7B7",
"N c #BCBCBC",
"B c #C0BFBF",
"V c #C4C4C4",
"C c #C8C7C7",
"Z c #CBCBCB",
"A c #D0CFCF",
"S c #D3D3D3",
"D c #DBDBDB",
"F c #DFE0E0",
"G c #E4E4E4",
"H c #EBEBEB",
"J c #F4F4F4",
"K c #FBFBFB",
"L c None",
/* pixels */
"LLLLLLLLLLLLLLLLLLLLaaapueLLLLLLLLLLLLLLLLLLLLLLLLLLLLLLLLLLLLLL",
"LLLLLLLLLLLLLLLLLcMCZAZNMclpe8LLLLLLLLLLLLLLLLLLLLLLLLLLLLLLLLLL",
"LLLLLLLLLLLLLLbMAGKKKJGDAVMbzsteLLLLLLLLLLLLLLLLLLLLLLLLLLLLLLLL",
"LLLLLLLLLLLLLNSGHJKKKHGDAVNbxlduew9LLLLLLLLLLLLLLLLLLLLLLLLLLLLL",
"LLLLLLLLLLLNZDHHJJJKKJHDACNnckdirq006LLLLLLLLLLLLLLLLLLLLLLLLLLL",
"LLLLLLLLLLVADDGGHHJKKJHDSCBmvzgprw80w6LLLLLLLLLLLLLLLLLLLLLLLLLL",
"LLLLLLLLLCASDDGGHJJJKKHGDZBMbxgaue650w6,LLLLLLLLLLLLLLLLLLLLLLLL",
"LLLLLLLLCZASDDGHHJJKKKJGDZVMbclsue942005,LLLLLLLLLLLLLLLLLLLLLLL",
"LLLLLLLZCCASDDFGHHJJKKJGDSCNmczdur05<3092:LLLLLLLLLLLLLLLLLLLLLL",
"LLLLLLANVCZSSDFGHHJJKKJHFSCNmczfprw6<>6961-LLLLLLLLLLLLLLLLLLLLL",
"LLLLLLNmNCZASDFGHHJJKKKHGSZVmvzgatw62:,994>=LLLLLLLLLLLLLLLLLLLL",
"LLLLLCcbNCZAZCCZSGHKKKJHDSZVNbxlaue93>-3062-%LLLLLLLLLLLLLLLLLLL",
"LLLLDczbMNbgr63240dNANbzzzlzcvcldur94,->963,=LLLLLLLLLLLLLLLLLLL",
"LLLLNdzvvp5;&%$$$%=1rslcmNVNcdshfpr061-=6061:%LLLLLLLLLLLLLLLLLL",
"LLLDlazlq,;;;;--:,6eufzbMCSGJGmuuatw62:&2w64,*LLLLLLLLLLLLLLLLLL",
"LLLBull93332<2<3347epfzbNZSGHKKSseye92>*:q061:$LLLLLLLLLLLLLLLLL",
"LLLjsxe987666694:29rpgxnNZDGJKJHDg9e94,==0w64,&LLLLLLLLLLLLLLLLL",
"LLSavueeeeewqe6=:40rphcnNADGJKJHFSg8961-=6r061;$LLLLLLLLLLLLLLLL",
"LLNczuuuuuutye*%,4qtalvmBADHJKJHFSCi562;=6rw64,%LLLLLLLLLLLLLLLL",
"LLNbddddssppp,@*,6wuskvmVSFHKKHGDSCMw43:*4te961=LLLLLLLLLLLLLLLL",
"LHSczllhhhggr##=<6eudzvMCSFHKKHGDACNz42,=4urw73:$LLLLLLLLLLLLLLL",
"LHZcccccxxxx1+$-17eifxbNZSGHKKHGDZVNnu1<-4pue96<%LLLLLLLLLLLLLLL",
"LHNmnbbbbbnM&+$;29rpfxnNZSGJKJHFDZVMbz3,:6airw73*LLLLLLLLLLLLLLL",
"LGVNNNNNMMVS-+%:39rpgcmNCADHKJHFSZVMbcr>:9dpte06-LLLLLLLLLLLLLLL",
"LDZCCVVVVBSG9@%>40tfvvlaiagxMZDFSZBmbxd<,ehsprw6>-LLLLLLLLLLLLLL",
"LGSSSSAAAZDCk@*,4exxe;$&<6epfhznZZBmvzh6,uzdpue91:LLLLLLLLLLLLLL",
"LHDDDDDDDDFcN:=,rvt&O+$;4qudznmcgnNmvzge1dzhairw2,LLLLLLLLLLLLLL",
"JHHHHHGGGGDlNp=ev4++@#=18rakvNZDZgknczgu9ccldpue6,LLLLLLLLLLLLLL",
"JJKJJJJHHJDdzNrb2+@+@%>5wifzcnNSJHksckdupbczhsir6,LLLLLLLLLLLLLL",
"JKKKKKKKKKDssNA6O@@@#-29ihlfaiupkVDhpldtzMbcldpu6>rLLLLLLLLLLLLL",
"LKKKKKKKKKDpszV2O@@@&,0hvLLLLLLLL6tviippNNnczhsi6:eLLLLLLLLLLLLL",
"LJJJJKJKKKGipdbb&+@$;wvLLLLLLLLLLLL2q8tbCNmbcjda6:rLLLLLLLLLLLLL",
"LJJJJJJJJJHpushMz%@=9mLLLLLLLLLLLLLLL1lSZVMnczgs4,rLLLLLLLLLLLLL",
"LJHHHJHHJHJdtpdzNg-2bLLLLLLLLLLLLLLLLdSSAVNmbcks12rLLLLLLLLLLLLL",
"LJHGHHHHHHJxeuslcNczLLLLLLLLLLLLLLLLhSGDSZVMbczp,5uLLLLLLLLLLLLL",
"LJHGGFGHGGJBwyadzcNSLLLLLLLLLLLLLLLcDJHGDACNmbct,6uLLLLLLLLLLLLL",
"LKHDFGFGGGHDrruslcbNZALLLLLLLLLLLkMHKKHGDSZBNbc919uLLLLLLLLLLLLL",
"LLHDDDDDDDFJgwradzcbNCZCLLLLLLLbMSJKKKJHGSACNml23qaLLLLLLLLLLLLL",
"LLHDDSSDDDFAM0ruslcbMVCZZCCBBVZDHHJJKKJJGDSCVMu,5eaLLLLLLLLLLLLL",
"LLJDSSSSSSFxMpwypgzcnNVZZASDDFGHHHJJKKKJHGSACb416rsLLLLLLLLLLLLL",
"LLLDSAAAAAFgsN0rislxbMBCZASDDDFGHHJJKKKJJGDSCu,20rdLLLLLLLLLLLLL",
"LLLGZZCZZZDg9NfwtafzcmNCZAASDDFGHHHJJKKKJHDDb3,60udLLLLLLLLLLLLL",
"LLLJZVVCCCDl6dZyrudjcbMBCZASSDFFGHHHJKKKJHGZq;16eudLLLLLLLLLLLLL",
"LLLLDMMNNNSc6rbNrtpfzcmNVZZASDDFGGHJJJKKKJDi-;29rpfgLLLLLLLLLLLL",
"LLLLHMbbnnVm7rsVmrislcbMVCZASDDFGGGHJJKKKHg-&>40tahhLLLLLLLLLLLL",
"LLLLLCxzxcnV0tscZmipdzcmNVZZSSSFGGHHHJJKHh;@=<6wudzlLLLLLLLLLLLL",
"LLLLLGcghhzArrszmSBfalcbMVCZASSDDGGGHJJSi=@$-29rpfxcgLLLLLLLLLLL",
"LLLLLLBapaaBfrszbBSAbzzcmNVCAASDDGGHHFb0=@@&>40rahcmzLLLLLLLLLLL",
"LLLLLLGzrurcmraznVCSDZMbnMVCAASSDDDSmp2$%@@=,6wudzvMmdLLLLLLLLLL",
"LLLLLLLAr0wuVpazbBZASDDSCVVVVZZZVNvde4-$#%%-19epfzbNCbLLLLLLLLLL",
"LLLLLLLLn966bcazbVZASFFGHHGDSVNmbzsu92-$@%%>40rahcmNAAzLLLLLLLLL",
"LLLLLLLLFg,<wCdlbBZADDGHJJKJGDZMblsr04-$@@*,4wuszvMVSGSgLLLLLLLL",
"LLLLLLLLLSu--zmkbBZASDGGHJKJHDZNbzay02:$@@%,9eufzbNCSGJDdLLLLLLL",
"LLLLLLLLLLVq#>NbbBCADDGHJJKKHDZNblsu04-$@@@=9ragcnBZDGJKDfLLLLLL",
"LLLLLLLLLLLB9@wZnBCASDGHHJKJGDZNbzdt02-$@@@1cuszcMVAFHKKKGcqLLLL",
"LLLLLLLLLLLLNe%dZBZADDFHJJKKHDZNbzsuw2:$@$%LGmgzbNCSGHKKJJHZd9=L",
"LLLLLLLLLLLLLVp:cACASFFHJJKKHDZNbzdu03:$%-LLLDNcnNADGJKKJHHGDc:L",
"LLLLLLLLLLLLLLLl0bSSSDGGHJKJHDANbzsu03::,LLLLLLCNVADHJKKJHHDv6LL",
"LLLLLLLLLLLLLLLLcdMSDDFHJJKKHDZNbzduw63LLLLLLLLLCVADJKKJJGBs6LLL",
"LLLLLLLLLLLLLLLLLLhMADGHHJKJHDANnzdy04LLLLLLLLLLLLNNCAAVbgrLLLLL",
"LLLLLLLLLLLLLLLLLLLLinZDHHKJGDZmxar4LLLLLLLLLLLLLLLLLLLLLLLLLLLL",
"LLLLLLLLLLLLLLLLLLLLLL:walxxzdt9,$XLLLLLLLLLLLLLLLLLLLLLLLLLLLLL",
"LLLLLLLLLLLLLLLLLLLLLL   .oooX.     LLLLLLLLLLLLLLLLLLLLLLLLLLLL",
"LLLLLLLLLLLLLLLLLLLLLLLLL        LLLLLLLLLLLLLLLLLLLLLLLLLLLLLLL"
};
