/* XPM */
static char *_4a0ed77449848f1cc377da1c1fb970f[] = {
/* columns rows colors chars-per-pixel */
"16 16 131 2 ",
"   c #313130",
".  c #343434",
"X  c gray22",
"o  c #424241",
"O  c #464546",
"+  c #474746",
"@  c #494848",
"#  c #4E4E4D",
"$  c #4F4E4E",
"%  c #4F4F4E",
"&  c #515050",
"*  c #515150",
"=  c #525251",
"-  c #545453",
";  c #555454",
":  c #565655",
">  c #575656",
",  c #575756",
"<  c #585857",
"1  c #5A5959",
"2  c #5D5C5C",
"3  c #5E5D5D",
"4  c #5F5E5E",
"5  c #616060",
"6  c #626161",
"7  c #636362",
"8  c #656564",
"9  c #676766",
"0  c #686767",
"q  c #6A6969",
"w  c #6B6B6A",
"e  c #6C6C6B",
"r  c #6D6D6D",
"t  c gray43",
"y  c #706F6F",
"u  c #717070",
"i  c #747474",
"p  c #757474",
"a  c #767575",
"s  c #777676",
"d  c #7D7C7C",
"f  c #80807F",
"g  c #818080",
"h  c #818181",
"j  c #848483",
"k  c #848484",
"l  c #868585",
"z  c #878686",
"x  c #888787",
"c  c #8A8989",
"v  c gray54",
"b  c #8C8B8B",
"n  c gray55",
"m  c #8D8C8C",
"M  c #908F8F",
"N  c #909090",
"B  c gray57",
"V  c #929191",
"C  c #939292",
"Z  c #959494",
"A  c #969596",
"S  c #9A9999",
"D  c #9B9B9B",
"F  c #9E9D9D",
"G  c #9E9E9D",
"H  c #9F9E9E",
"J  c #A09F9F",
"K  c #A3A2A2",
"L  c gray64",
"P  c #A6A5A5",
"I  c #A7A6A6",
"U  c #A7A7A7",
"Y  c #A8A7A7",
"T  c #AAAAAA",
"R  c #ACABAB",
"E  c #ADADAC",
"W  c #AEADAD",
"Q  c #AEAEAE",
"!  c #B2B2B2",
"~  c #B3B2B2",
"^  c gray72",
"/  c #BAB9B9",
"(  c gray73",
")  c #BBBABA",
"_  c gray74",
"`  c #C0BFBF",
"'  c #C0C0C0",
"]  c #C1C1C1",
"[  c gray76",
"{  c #C3C3C3",
"}  c gray77",
"|  c #C5C5C5",
" . c #C6C6C6",
".. c gray78",
"X. c #C8C8C8",
"o. c gray79",
"O. c #CBCBCB",
"+. c gray80",
"@. c #CDCDCD",
"#. c #CECECE",
"$. c #D0D0D0",
"%. c gray82",
"&. c #D2D2D2",
"*. c LightGray",
"=. c gray83",
"-. c #D5D5D5",
";. c gray84",
":. c #D7D7D7",
">. c #D8D8D8",
",. c #DADADA",
"<. c gainsboro",
"1. c #DDDDDD",
"2. c gray87",
"3. c #DFDFDF",
"4. c #E1E1E1",
"5. c #E4E4E4",
"6. c gray90",
"7. c #E6E6E6",
"8. c gray91",
"9. c #E9E9E9",
"0. c gray92",
"q. c gray93",
"w. c #EEEEEE",
"e. c #EFEFEF",
"r. c gray95",
"t. c #F3F3F3",
"y. c #F4F4F4",
"u. c #F6F6F6",
"i. c #F8F8F8",
"p. c gray98",
"a. c None",
/* pixels */
"a.a.a.a.3.:.E z a.a.a.a.a.a.a.a.",
"a.a.@.3.r.r.| A w 3 a.a.a.a.a.a.",
"a._ | O.4.9.O.J t ; = a.a.a.a.a.",
"a.S a , e L ] ^ d # ; o a.a.a.a.",
"! x u = 3 S :.e.R , 1 # a.a.a.a.",
"| T F + 0 L &.9.O.i 9 5 a.a.a.a.",
"3.:.| 9 5 < j ^ ^ b f a a.a.a.a.",
"u.i.:.b X # z a.J b P b 3 a.a.a.",
"e.e.&.b z a.a.a.a.` | A 5 a.a.a.",
"5.<.&.b F ] +.#.7.r.>.m w a.a.a.",
"a.O.( m b ! #.3.e.i.:.w a a.a.a.",
"a.! F N P U ] :.4.:.t , N a.a.a.",
"a.a.f N ] &.:.@.R 2   w Y _ a.a.",
"a.a.a.h ] 4.u.&.N @   b ) 7.@.a.",
"a.a.a.a.Q >.r.&.M = a.a.| 9.&.a.",
"a.a.a.a.a.e b i + a.a.a.a.a.a.a."
};
