/* XPM */
static char *c8b8f0ed146743fed9a632e7e7a7372f[] = {
/* columns rows colors chars-per-pixel */
"32 32 53 1 ",
"  c #050506",
". c #0F0F10",
"X c #131314",
"o c #1C1C1C",
"O c #252524",
"+ c #282827",
"@ c #2D2D2C",
"# c #353534",
"$ c #383837",
"% c #3D3D3C",
"& c #444443",
"* c #484747",
"= c #484847",
"- c #4C4C4B",
"; c #504F4F",
": c #545453",
"> c #585757",
", c #5C5C5B",
"< c #605F5F",
"1 c #60605F",
"2 c #646363",
"3 c #686767",
"4 c #6D6C6C",
"5 c #706F6F",
"6 c #747373",
"7 c #787777",
"8 c #787877",
"9 c #7C7B7B",
"0 c #807F7F",
"q c #848383",
"w c #888787",
"e c #8C8B8B",
"r c #908F8F",
"t c #949393",
"y c #989797",
"u c #9D9C9C",
"i c #A4A3A3",
"p c #A8A7A7",
"a c #ACACAC",
"s c #B4B3B3",
"d c #BCBBBB",
"f c #C0BFBF",
"g c #C3C3C3",
"h c #CBCBCB",
"j c #D3D3D3",
"k c #DBDBDB",
"l c #E3E3E3",
"z c #E8E7E7",
"x c #E7E8E8",
"c c #EBEBEB",
"v c #F4F4F4",
"b c #FAFAFA",
"n c None",
/* pixels */
"nnnnnnnnnddsuwnnnnnnnnnnnnnnnnnn",
"nnnnnnnhlbvkgst85nnnnnnnnnnnnnnn",
"nnnnngklcbbljsiw532nnnnnnnnnnnnn",
"nnnnhjklcbbcjdpr6,<,nnnnnnnnnnnn",
"nnnggjklcvbckgpt8<;<;nnnnnnnnnnn",
"nnnsghhhkvbcjgsu03=;,*nnnnnnnnnn",
"nnaii8:=:0ppasptw5;&<;%nnnnnnnnn",
"nntw,=&&=,qifkcdq5,%:<&nnnnnnnnn",
"nar5322;;4wpglbcg7,&;3;$nnnnnnnn",
"nseqq03#;6rahlbxka2&=6,%nnnnnnnn",
"nduuyt&#>8tshcbcjgw=;73;nnnnnnnn",
"lfssss%$,9ushkbljdi,:q5,%nnnnnnn",
"lhhhhh>$3w926raggdi52r93=nnnnnnn",
"cllklgw:9&O%2wpdsai08uw5:nnnnnnn",
"bbvvvsiw#o#:0tisgirwupr8>nnnnnnn",
"bbbbbsrt@O-wnnnnnq6rdauw:nnnnnnn",
"bccvbd9u9&wnnnnnnn6dhsie>nnnnnnn",
"nccxch8rpsnnnnnnnnjljfaw>nnnnnnn",
"nlklkkq9usgnnnnnfkbckgd8,nnnnnnn",
"nljjkjt7widhhhhkcbbbljs23nnnnnnn",
"nlhhjsr90yaghkklcvbbckr;5nnnnnnn",
"nnhggs8i9ridgjjllcbbbs;:8rnnnnnn",
"nnhpps7uiwtsfhjklcvbh:%2qtnnnnnn",
"nnniwpqrdduidhjkllls;+-5wpnnnnnn",
"nnns8wurdhjgfgghhsw%+#:7tsannnnn",
"nnnnr,rudhklcckdp0,#O%<qudjsnnnn",
"nnnnn5,pshkxvblgi0,#O$4wpgkxsnnn",
"nnnnnn29dhklvblgi0<#O%utshcbcd0n",
"nnnnnnn8ihklvblgiq,%#nnddkvbvkun",
"nnnnnnnnndklvbxgp02nnnnndhklginn",
"nnnnnnnnnn5uddar5&nnnnnnnnnnnnnn",
"nnnnnnnnnnn Xoo. nnnnnnnnnnnnnnn"
};
